<svg width="24" height="33" viewBox="0 0 24 33" fill="none" xmlns="http://www.w3.org/2000/svg">
<g id="Group 452">
<circle id="Ellipse 60" cx="12" cy="21" r="11" fill="#FF8743"/>
<path id="Path" fill-rule="evenodd" clip-rule="evenodd" d="M17.2975 17.2125C16.9074 16.8196 16.2719 16.8181 15.8804 17.2096L10 23.09L7.11549 20.2135C6.7257 19.8248 6.09474 19.8253 5.70549 20.2145C5.31586 20.6041 5.31586 21.2359 5.70549 21.6255L9.29289 25.2129C9.68342 25.6034 10.3166 25.6034 10.7071 25.2129L17.2954 18.6246C17.6849 18.2351 17.6857 17.6034 17.2975 17.2125Z" fill="white"/>
<rect id="Rectangle 3468142" x="6" y="7.00024" width="4" height="8" rx="2" fill="#FF8743"/>
<rect id="Rectangle 3468143" x="10" y="7" width="4" height="8" rx="2" fill="#FF8743"/>
<rect id="Rectangle 3468144" x="14" y="7.00024" width="4" height="8" rx="2" fill="#FF8743"/>
<circle id="Ellipse 65" cx="12" cy="3" r="2" fill="#5BAA95"/>
</g>
</svg>
