<svg width="28" height="28" viewBox="0 0 28 28" fill="none" xmlns="http://www.w3.org/2000/svg">
<g id="Component 2">
<path id="Ellipse 125" d="M13.0062 13.0063C14.8497 9.81344 14.4621 5.9447 12.3272 3.20523C11.2214 1.78631 9.16685 2.45627 8.45991 4.11047L6.45211 8.80854C6.3579 9.02899 6.2376 9.23735 6.09379 9.42916L3.02904 13.517C1.94994 14.9563 2.39698 17.0706 4.17871 17.3188C7.61861 17.7979 11.1628 16.1992 13.0062 13.0063Z" fill="#FF8743"/>
<path id="Ellipse 127" d="M17.5106 24.274C21.0718 23.3198 23.5333 20.3101 23.9608 16.8634C24.1822 15.0781 22.2558 14.0991 20.5862 14.7689L15.8444 16.6712C15.6219 16.7605 15.3895 16.8227 15.1522 16.8567L10.0945 17.5801C8.31375 17.8348 7.13486 19.6459 8.21924 21.0813C10.3128 23.8525 13.9494 25.2282 17.5106 24.274Z" fill="#FF8743"/>
<path id="Vector 34" d="M8 8L10.5 8.5" stroke="#FFBC97" stroke-linecap="round"/>
<path id="Vector 37" d="M18.0825 17L19.8423 18.8447" stroke="#FFBC97" stroke-linecap="round"/>
<path id="Vector 35" d="M7.5 10L10 12" stroke="#FFBC97" stroke-linecap="round"/>
<path id="Vector 38" d="M16.5249 18.3506L17.4235 21.4235" stroke="#FFBC97" stroke-linecap="round"/>
<path id="Vector 36" d="M6 11.5L7 14" stroke="#FFBC97" stroke-linecap="round"/>
<path id="Vector 39" d="M14.4355 18.7173L13.8189 21.3383" stroke="#FFBC97" stroke-linecap="round"/>
</g>
</svg>
