<svg width="24" height="26" viewBox="0 0 24 26" fill="none" xmlns="http://www.w3.org/2000/svg">
<g id="Group 452">
<circle id="Ellipse 60" cx="12" cy="14" r="11" fill="#CED2D7"/>
<path id="Path" fill-rule="evenodd" clip-rule="evenodd" d="M17.2975 10.2125C16.9074 9.81963 16.2719 9.81811 15.8804 10.2096L10 16.09L7.11549 13.2135C6.7257 12.8248 6.09474 12.8253 5.70549 13.2145V13.2145C5.31586 13.6041 5.31586 14.2359 5.70549 14.6255L9.29289 18.2129C9.68342 18.6034 10.3166 18.6034 10.7071 18.2129L17.2954 11.6246C17.6849 11.2351 17.6857 10.6034 17.2975 10.2125V10.2125Z" fill="white"/>
<rect id="Rectangle 3468142" x="6" y="0.000244141" width="4" height="8" rx="2" fill="#CED2D7"/>
<rect id="Rectangle 3468143" x="10" width="4" height="8" rx="2" fill="#CED2D7"/>
<rect id="Rectangle 3468144" x="14" y="0.000244141" width="4" height="8" rx="2" fill="#CED2D7"/>
</g>
</svg>
